# xmcd CD database file
#
# Track frame offsets:
#	150
#	9153
#	39286
#	52852
#	79472
#	115910
#	145289
#
# Disc length: 2216 seconds
#
# Revision: 0
# Processed by: cddbd v1.5.1PL0 Copyright (c) Steve Scherf et al.
# Submitted via: CDex 1.51
#
DISCID=4e08a607
DTITLE=Passage Point's Sounds - 想い出
DYEAR=1900
DGENRE=未分類 (日本)
TTITLE0=opening
TTITLE1=カイエンのテーマ
TTITLE2=The Battle Scene2#2
TTITLE3=リルムのテーマ
TTITLE4=Disincentive
TTITLE5=Disincentive-Dive Mix-
TTITLE6=怪傑ロビンのテーマ-2nd J Mix-
EXTD=
EXTT0=
EXTT1=
EXTT2=
EXTT3=
EXTT4=
EXTT5=
EXTT6=
PLAYORDER=
